# This file uses centimeters as units for non-parametric coordinates.

mtllib RoadwayTunnel.mtl
g default
v 1268.654724 20.947589 -1597.184831
v 1802.481906 20.947589 -1544.086038
v 1268.017186 25.207664 -1591.645739
v 1801.938895 25.207664 -1539.368226
v 1282.369538 25.207664 -1716.341530
v 1816.291005 25.207664 -1664.064044
v 1281.705462 20.947589 -1710.571863
v 1815.532401 20.947589 -1657.473097
v 1989.509613 20.947589 -1623.082899
v 1956.170150 20.947589 -1513.589167
v 1990.105463 25.207664 -1628.259792
v 1955.482037 25.207664 -1507.610670
v 1266.270326 20.947589 -1573.803901
v 1799.250109 20.947589 -1521.669821
v 1799.250109 25.207664 -1521.669821
v 1266.270326 25.207664 -1573.803901
v 1951.850920 20.947589 -1490.055377
v 1951.850920 25.207664 -1490.055377
v 1284.116156 25.207664 -1734.183396
v 1818.972855 25.207664 -1681.764107
v 1818.972855 20.947589 -1681.764107
v 1284.116156 20.947589 -1734.183396
v 1993.722195 25.207664 -1645.818216
v 1993.722195 20.947589 -1645.818216
v 1268.691304 -14.817599 -1597.502649
v 1802.513062 -14.817599 -1544.356734
v 1799.250109 -14.817599 -1521.669821
v 1266.270326 -14.817599 -1573.803901
v 1956.209632 -14.817599 -1513.932197
v 1951.850920 -14.817599 -1490.055377
v 1281.667359 -14.817599 -1710.240815
v 1815.488874 -14.817599 -1657.094925
v 1284.116156 -14.817599 -1734.183396
v 1818.972855 -14.817599 -1681.764107
v 1989.475425 -14.817599 -1622.785860
v 1993.722195 -14.817599 -1645.818216
vt 0.375000 0.000000
vt 0.625000 0.000000
vt 0.375000 0.250000
vt 0.625000 0.250000
vt 0.375000 0.500000
vt 0.625000 0.500000
vt 0.375000 0.750000
vt 0.625000 0.750000
vt 0.375000 1.000000
vt 0.625000 1.000000
vt 0.875000 0.000000
vt 0.875000 0.250000
vt 0.125000 0.000000
vt 0.125000 0.250000
vt 0.625000 0.000000
vt 0.875000 0.000000
vt 0.875000 0.250000
vt 0.625000 0.250000
vt 0.375000 0.000000
vt 0.625000 0.000000
vt 0.625000 0.250000
vt 0.375000 0.250000
vt 0.375000 0.500000
vt 0.625000 0.500000
vt 0.625000 0.750000
vt 0.375000 0.750000
vt 0.875000 0.250000
vt 0.875000 0.250000
vt 0.875000 0.000000
vt 0.875000 0.000000
vt 0.625000 0.000000
vt 0.625000 0.250000
vt 0.375000 0.000000
vt 0.625000 0.000000
vt 0.625000 0.000000
vt 0.375000 0.000000
vt 0.375000 0.500000
vt 0.625000 0.500000
vt 0.625000 0.500000
vt 0.375000 0.500000
vt 0.875000 0.250000
vt 0.875000 0.000000
vt 0.875000 0.000000
vt 0.875000 0.250000
vt 0.625000 0.250000
vt 0.625000 0.250000
vt 0.625000 0.250000
vt 0.625000 0.250000
vn -0.097352 0.000000 0.995250
vn -0.121256 0.000000 0.992621
vn -0.097352 0.000000 0.995250
vn -0.121256 0.000000 0.992621
vn -0.000000 1.000000 0.000000
vn -0.000000 1.000000 0.000000
vn 0.000000 1.000000 -0.000000
vn -0.000000 1.000000 0.000000
vn 0.097539 0.000000 -0.995232
vn 0.123573 0.000000 -0.992335
vn 0.097539 0.000000 -0.995232
vn 0.123573 0.000000 -0.992335
vn 0.000000 -1.000000 -0.000000
vn 0.000000 -1.000000 -0.000000
vn -0.000000 -1.000000 0.000000
vn -0.000000 -1.000000 0.000000
vn 0.967257 0.103787 0.231606
vn 0.958572 0.145701 0.244767
vn 0.967873 -0.111195 0.225516
vn 0.957822 -0.168354 0.232882
vn -0.994209 -0.000446 -0.107467
vn -0.994058 -0.006811 -0.108634
vn -0.994170 0.000429 -0.107824
vn -0.994038 0.006872 -0.108817
vn 0.000000 -1.000000 -0.000000
vn 0.000000 -1.000000 0.000000
vn 0.201481 0.000000 -0.979492
vn 0.201481 0.000000 -0.979492
vn -0.000000 1.000000 0.000000
vn -0.000000 1.000000 0.000000
vn -0.202863 0.000000 0.979207
vn -0.202863 0.000000 0.979207
vn -0.000000 -1.000000 0.000000
vn -0.000000 -1.000000 0.000000
vn -0.000000 -1.000000 0.000000
vn -0.000000 -1.000000 0.000000
vn -0.000000 1.000000 0.000000
vn 0.000000 1.000000 0.000000
vn -0.994869 -0.000274 -0.101171
vn -0.995241 0.000000 -0.097442
vn -0.000000 -1.000000 0.000000
vn 0.000000 -1.000000 0.000000
vn 0.983288 -0.001535 0.182051
vn 0.979272 0.000000 0.202551
vn -0.000000 1.000000 0.000000
vn 0.000000 1.000000 -0.000000
vn -0.000000 1.000000 0.000000
vn -0.000000 -1.000000 0.000000
vn -0.000000 -1.000000 0.000000
vn -0.000000 -1.000000 0.000000
vn -0.000000 -1.000000 0.000000
vn -0.994858 0.000283 -0.101280
vn -0.995243 0.000000 -0.097429
vn -0.000000 1.000000 0.000000
vn 0.983002 0.001358 0.183592
vn 0.979438 0.000000 0.201747
vn 0.000000 -1.000000 -0.000000
vn 0.000000 -1.000000 -0.000000
vn 0.098976 0.008943 -0.995050
vn 0.120769 0.007662 -0.992651
vn 0.098980 0.008887 -0.995050
vn 0.120746 0.007684 -0.992654
vn -0.121256 0.000000 0.992621
vn -0.097352 0.000000 0.995250
vn -0.994829 -0.000072 -0.101564
vn -0.994823 -0.000114 -0.101627
vn 0.194241 0.009333 -0.980910
vn 0.194175 0.009623 -0.980920
vn 0.983679 -0.000400 0.179930
vn 0.983743 -0.000637 0.179582
vn -0.202863 0.000000 0.979207
vn -0.122559 0.010571 0.992405
vn -0.099060 0.009372 0.995037
vn -0.122563 0.010600 0.992404
vn -0.099063 0.009316 0.995037
vn -0.994817 0.000074 -0.101682
vn -0.994810 0.000118 -0.101747
vn 0.097539 0.000000 -0.995232
vn 0.123573 0.000000 -0.992336
vn -0.193912 0.008333 0.980984
vn -0.193854 0.008621 0.980992
vn 0.201481 0.000000 -0.979492
vn 0.983365 0.000360 0.181638
vn 0.983423 0.000564 0.181326
s 1
g pCube6
usemtl initialShadingGroup
f 13/19/1 14/20/2 16/22/3
f 16/22/3 14/20/2 15/21/4
s 2
f 3/3/5 4/4/6 5/5/7
f 5/5/7 4/4/6 6/6/8
s 3
f 19/23/9 20/24/10 22/26/11
f 22/26/11 20/24/10 21/25/12
s 4
f 8/8/13 2/10/14 7/7/15
f 7/7/15 2/10/14 1/9/16
s 5
f 9/16/17 11/17/18 10/15/19
f 10/15/19 11/17/18 12/18/20
s 6
f 1/1/21 3/3/22 7/13/23
f 7/13/23 3/3/22 5/14/24
s 4
f 2/2/14 8/11/13 10/15/25
f 10/15/25 8/11/13 9/16/26
s 3
f 21/30/12 20/27/10 24/29/27
f 24/29/27 20/27/10 23/28/28
s 2
f 6/12/8 4/4/6 11/17/29
f 11/17/29 4/4/6 12/18/30
s 1
f 15/21/4 14/20/2 18/32/31
f 18/32/31 14/20/2 17/31/32
s 7
f 26/34/33 27/35/34 25/33/35
f 25/33/35 27/35/34 28/36/36
s 2
f 4/4/6 3/3/5 15/21/37
f 15/21/37 3/3/5 16/22/38
s 6
f 1/1/21 13/19/39 3/3/22
f 3/3/22 13/19/39 16/22/40
s 7
f 26/37/33 29/38/41 27/40/34
f 27/40/34 29/38/41 30/39/42
s 5
f 10/8/19 12/7/20 17/25/43
f 17/25/43 12/7/20 18/26/44
s 2
f 4/5/6 15/23/37 12/7/30
f 12/7/30 15/23/37 18/26/45
f 5/12/7 6/17/8 19/27/46
f 19/27/46 6/17/8 20/28/47
s 8
f 31/42/48 33/43/49 32/41/50
f 32/41/50 33/43/49 34/44/51
s 6
f 7/16/23 5/11/24 22/29/52
f 22/29/52 5/11/24 19/30/53
s 2
f 11/15/29 23/31/54 6/2/8
f 6/2/8 23/31/54 20/20/47
s 5
f 9/18/17 24/32/55 11/15/18
f 11/15/18 24/32/55 23/31/56
s 8
f 35/45/57 32/46/50 36/48/58
f 36/48/58 32/46/50 34/47/51
s 9
f 1/1/59 2/2/60 25/33/61
f 25/33/61 2/2/60 26/34/62
s 1
f 14/20/2 13/19/1 27/35/63
f 27/35/63 13/19/1 28/36/64
s 6
f 13/19/39 1/1/21 28/36/65
f 28/36/65 1/1/21 25/33/66
s 9
f 2/5/60 10/6/67 26/37/62
f 26/37/62 10/6/67 29/38/68
s 5
f 17/24/43 30/39/69 10/6/19
f 10/6/19 30/39/69 29/38/70
s 1
f 17/24/32 14/23/2 30/39/71
f 30/39/71 14/23/2 27/40/63
s 10
f 8/17/72 7/16/73 32/41/74
f 32/41/74 7/16/73 31/42/75
s 6
f 22/29/52 33/43/76 7/16/23
f 7/16/23 33/43/76 31/42/77
s 3
f 22/29/11 21/28/12 33/43/78
f 33/43/78 21/28/12 34/44/79
s 10
f 9/18/80 8/4/72 35/45/81
f 35/45/81 8/4/72 32/46/74
s 3
f 21/21/12 24/32/27 34/47/79
f 34/47/79 24/32/27 36/48/82
s 5
f 24/32/55 9/18/17 36/48/83
f 36/48/83 9/18/17 35/45/84
g default
v 1268.654724 20.947589 -1597.184831
v 1802.481906 20.947589 -1544.086038
v 1268.017186 25.207664 -1591.645739
v 1801.938895 25.207664 -1539.368226
v 1282.369538 25.207664 -1716.341530
v 1816.291005 25.207664 -1664.064044
v 1281.705462 20.947589 -1710.571863
v 1815.532401 20.947589 -1657.473097
v 1989.509613 20.947589 -1623.082899
v 1956.170150 20.947589 -1513.589167
v 1990.105463 25.207664 -1628.259792
v 1955.482037 25.207664 -1507.610670
v 1266.270326 20.947589 -1573.803901
v 1799.250109 20.947589 -1521.669821
v 1799.250109 25.207664 -1521.669821
v 1266.270326 25.207664 -1573.803901
v 1951.850920 20.947589 -1490.055377
v 1951.850920 25.207664 -1490.055377
v 1284.116156 25.207664 -1734.183396
v 1818.972855 25.207664 -1681.764107
v 1818.972855 20.947589 -1681.764107
v 1284.116156 20.947589 -1734.183396
v 1993.722195 25.207664 -1645.818216
v 1993.722195 20.947589 -1645.818216
v 1268.691304 -14.817599 -1597.502649
v 1802.513062 -14.817599 -1544.356734
v 1799.250109 -14.817599 -1521.669821
v 1266.270326 -14.817599 -1573.803901
v 1956.209632 -14.817599 -1513.932197
v 1951.850920 -14.817599 -1490.055377
v 1281.667359 -14.817599 -1710.240815
v 1815.488874 -14.817599 -1657.094925
v 1284.116156 -14.817599 -1734.183396
v 1818.972855 -14.817599 -1681.764107
v 1989.475425 -14.817599 -1622.785860
v 1993.722195 -14.817599 -1645.818216
vt 0.375000 0.000000
vt 0.625000 0.000000
vt 0.375000 0.250000
vt 0.625000 0.250000
vt 0.375000 0.500000
vt 0.625000 0.500000
vt 0.375000 0.750000
vt 0.625000 0.750000
vt 0.375000 1.000000
vt 0.625000 1.000000
vt 0.875000 0.000000
vt 0.875000 0.250000
vt 0.125000 0.000000
vt 0.125000 0.250000
vt 0.625000 0.000000
vt 0.875000 0.000000
vt 0.875000 0.250000
vt 0.625000 0.250000
vt 0.375000 0.000000
vt 0.625000 0.000000
vt 0.625000 0.250000
vt 0.375000 0.250000
vt 0.375000 0.500000
vt 0.625000 0.500000
vt 0.625000 0.750000
vt 0.375000 0.750000
vt 0.875000 0.250000
vt 0.875000 0.250000
vt 0.875000 0.000000
vt 0.875000 0.000000
vt 0.625000 0.000000
vt 0.625000 0.250000
vt 0.375000 0.000000
vt 0.625000 0.000000
vt 0.625000 0.000000
vt 0.375000 0.000000
vt 0.375000 0.500000
vt 0.625000 0.500000
vt 0.625000 0.500000
vt 0.375000 0.500000
vt 0.875000 0.250000
vt 0.875000 0.000000
vt 0.875000 0.000000
vt 0.875000 0.250000
vt 0.625000 0.250000
vt 0.625000 0.250000
vt 0.625000 0.250000
vt 0.625000 0.250000
vn -0.097352 0.000000 0.995250
vn -0.121256 0.000000 0.992621
vn -0.097352 0.000000 0.995250
vn -0.121256 0.000000 0.992621
vn -0.000000 1.000000 0.000000
vn -0.000000 1.000000 0.000000
vn 0.000000 1.000000 -0.000000
vn -0.000000 1.000000 0.000000
vn 0.097539 0.000000 -0.995232
vn 0.123573 0.000000 -0.992335
vn 0.097539 0.000000 -0.995232
vn 0.123573 0.000000 -0.992335
vn 0.000000 -1.000000 -0.000000
vn 0.000000 -1.000000 -0.000000
vn -0.000000 -1.000000 0.000000
vn -0.000000 -1.000000 0.000000
vn 0.967257 0.103787 0.231606
vn 0.958572 0.145701 0.244767
vn 0.967873 -0.111195 0.225516
vn 0.957822 -0.168354 0.232882
vn -0.994209 -0.000446 -0.107467
vn -0.994058 -0.006811 -0.108634
vn -0.994170 0.000429 -0.107824
vn -0.994038 0.006872 -0.108817
vn 0.000000 -1.000000 -0.000000
vn 0.000000 -1.000000 0.000000
vn 0.201481 0.000000 -0.979492
vn 0.201481 0.000000 -0.979492
vn -0.000000 1.000000 0.000000
vn -0.000000 1.000000 0.000000
vn -0.202863 0.000000 0.979207
vn -0.202863 0.000000 0.979207
vn -0.000000 -1.000000 0.000000
vn -0.000000 -1.000000 0.000000
vn -0.000000 -1.000000 0.000000
vn -0.000000 -1.000000 0.000000
vn -0.000000 1.000000 0.000000
vn 0.000000 1.000000 0.000000
vn -0.994869 -0.000274 -0.101171
vn -0.995241 0.000000 -0.097442
vn -0.000000 -1.000000 0.000000
vn 0.000000 -1.000000 0.000000
vn 0.983288 -0.001535 0.182051
vn 0.979272 0.000000 0.202551
vn -0.000000 1.000000 0.000000
vn 0.000000 1.000000 -0.000000
vn -0.000000 1.000000 0.000000
vn -0.000000 -1.000000 0.000000
vn -0.000000 -1.000000 0.000000
vn -0.000000 -1.000000 0.000000
vn -0.000000 -1.000000 0.000000
vn -0.994858 0.000283 -0.101280
vn -0.995243 0.000000 -0.097429
vn -0.000000 1.000000 0.000000
vn 0.983002 0.001358 0.183592
vn 0.979438 0.000000 0.201747
vn 0.000000 -1.000000 -0.000000
vn 0.000000 -1.000000 -0.000000
vn 0.098976 0.008943 -0.995050
vn 0.120769 0.007662 -0.992651
vn 0.098980 0.008887 -0.995050
vn 0.120746 0.007684 -0.992654
vn -0.121256 0.000000 0.992621
vn -0.097352 0.000000 0.995250
vn -0.994829 -0.000072 -0.101564
vn -0.994823 -0.000114 -0.101627
vn 0.194241 0.009333 -0.980910
vn 0.194175 0.009623 -0.980920
vn 0.983679 -0.000400 0.179930
vn 0.983743 -0.000637 0.179582
vn -0.202863 0.000000 0.979207
vn -0.122559 0.010571 0.992405
vn -0.099060 0.009372 0.995037
vn -0.122563 0.010600 0.992404
vn -0.099063 0.009316 0.995037
vn -0.994817 0.000074 -0.101682
vn -0.994810 0.000118 -0.101747
vn 0.097539 0.000000 -0.995232
vn 0.123573 0.000000 -0.992336
vn -0.193912 0.008333 0.980984
vn -0.193854 0.008621 0.980992
vn 0.201481 0.000000 -0.979492
vn 0.983365 0.000360 0.181638
vn 0.983423 0.000564 0.181326
s 1
g pCube6
f 49/67/85 50/68/86 52/70/87
f 52/70/87 50/68/86 51/69/88
s 2
f 39/51/89 40/52/90 41/53/91
f 41/53/91 40/52/90 42/54/92
s 3
f 55/71/93 56/72/94 58/74/95
f 58/74/95 56/72/94 57/73/96
s 4
f 44/56/97 38/58/98 43/55/99
f 43/55/99 38/58/98 37/57/100
s 5
f 45/64/101 47/65/102 46/63/103
f 46/63/103 47/65/102 48/66/104
s 6
f 37/49/105 39/51/106 43/61/107
f 43/61/107 39/51/106 41/62/108
s 4
f 38/50/98 44/59/97 46/63/109
f 46/63/109 44/59/97 45/64/110
s 3
f 57/78/96 56/75/94 60/77/111
f 60/77/111 56/75/94 59/76/112
s 2
f 42/60/92 40/52/90 47/65/113
f 47/65/113 40/52/90 48/66/114
s 1
f 51/69/88 50/68/86 54/80/115
f 54/80/115 50/68/86 53/79/116
s 7
f 62/82/117 63/83/118 61/81/119
f 61/81/119 63/83/118 64/84/120
s 2
f 40/52/90 39/51/89 51/69/121
f 51/69/121 39/51/89 52/70/122
s 6
f 37/49/105 49/67/123 39/51/106
f 39/51/106 49/67/123 52/70/124
s 7
f 62/85/117 65/86/125 63/88/118
f 63/88/118 65/86/125 66/87/126
s 5
f 46/56/103 48/55/104 53/73/127
f 53/73/127 48/55/104 54/74/128
s 2
f 40/53/90 51/71/121 48/55/114
f 48/55/114 51/71/121 54/74/129
f 41/60/91 42/65/92 55/75/130
f 55/75/130 42/65/92 56/76/131
s 8
f 67/90/132 69/91/133 68/89/134
f 68/89/134 69/91/133 70/92/135
s 6
f 43/64/107 41/59/108 58/77/136
f 58/77/136 41/59/108 55/78/137
s 2
f 47/63/113 59/79/138 42/50/92
f 42/50/92 59/79/138 56/68/131
s 5
f 45/66/101 60/80/139 47/63/102
f 47/63/102 60/80/139 59/79/140
s 8
f 71/93/141 68/94/134 72/96/142
f 72/96/142 68/94/134 70/95/135
s 9
f 37/49/143 38/50/144 61/81/145
f 61/81/145 38/50/144 62/82/146
s 1
f 50/68/86 49/67/85 63/83/147
f 63/83/147 49/67/85 64/84/148
s 6
f 49/67/123 37/49/105 64/84/149
f 64/84/149 37/49/105 61/81/150
s 9
f 38/53/144 46/54/151 62/85/146
f 62/85/146 46/54/151 65/86/152
s 5
f 53/72/127 66/87/153 46/54/103
f 46/54/103 66/87/153 65/86/154
s 1
f 53/72/116 50/71/86 66/87/155
f 66/87/155 50/71/86 63/88/147
s 10
f 44/65/156 43/64/157 68/89/158
f 68/89/158 43/64/157 67/90/159
s 6
f 58/77/136 69/91/160 43/64/107
f 43/64/107 69/91/160 67/90/161
s 3
f 58/77/95 57/76/96 69/91/162
f 69/91/162 57/76/96 70/92/163
s 10
f 45/66/164 44/52/156 71/93/165
f 71/93/165 44/52/156 68/94/158
s 3
f 57/69/96 60/80/111 70/95/163
f 70/95/163 60/80/111 72/96/166
s 5
f 60/80/139 45/66/101 72/96/167
f 72/96/167 45/66/101 71/93/168
