# This file uses centimeters as units for non-parametric coordinates.

mtllib triggerVolume.mtl
g default
v -148.817923 -19.219253 2.651737
v 148.817982 -19.219253 2.651666
v -148.817923 19.219253 2.651737
v 148.817982 19.219253 2.651666
v -148.817982 19.219253 -2.651666
v 148.817923 19.219253 -2.651737
v -148.817982 -19.219253 -2.651666
v 148.817923 -19.219253 -2.651737
vt 0.000000 0.000000
vt 1.000000 0.000000
vt 0.000000 1.000000
vt 1.000000 1.000000
vt 0.000000 1.000000
vt 1.000000 1.000000
vt 0.000000 0.000000
vt 1.000000 0.000000
vn 0.000000 0.000000 1.000000
vn 0.000000 0.000000 1.000000
vn 0.000000 0.000000 1.000000
vn 0.000000 0.000000 1.000000
vn 0.000000 1.000000 0.000000
vn 0.000000 1.000000 0.000000
vn 0.000000 1.000000 0.000000
vn 0.000000 1.000000 0.000000
vn -0.000000 0.000000 -1.000000
vn -0.000000 0.000000 -1.000000
vn -0.000000 0.000000 -1.000000
vn -0.000000 0.000000 -1.000000
vn 0.000000 -1.000000 -0.000001
vn 0.000000 -1.000000 0.000000
vn 0.000000 -1.000000 -0.000000
vn 0.000000 -1.000000 0.000001
vn 1.000000 0.000000 -0.000011
vn 1.000000 0.000000 -0.000011
vn 1.000000 0.000000 -0.000011
vn 1.000000 0.000000 -0.000011
vn -1.000000 0.000000 0.000011
vn -1.000000 0.000000 0.000011
vn -1.000000 0.000000 0.000011
vn -1.000000 0.000000 0.000011
s 1
g pCube8
usemtl initialShadingGroup
f 1/1/1 2/2/2 3/3/3
f 3/3/3 2/2/2 4/4/4
s 2
f 3/3/5 4/4/6 5/5/7
f 5/5/7 4/4/6 6/6/8
s 3
f 5/5/9 6/6/10 7/7/11
f 7/7/11 6/6/10 8/8/12
s 4
f 7/7/13 8/8/14 1/1/15
f 1/1/15 8/8/14 2/2/16
s 5
f 2/2/17 8/8/18 4/4/19
f 4/4/19 8/8/18 6/6/20
s 6
f 7/7/21 1/1/22 5/5/23
f 5/5/23 1/1/22 3/3/24
